# xmcd CD database file
#
# Track frame offsets:
#	150
#	15435
#	30554
#	54187
#
# Disc length: 1043 seconds
#
# Revision: 0
# Processed by: cddbd v1.5.1PL0 Copyright (c) Steve Scherf et al.
# Submitted via: Feurio! 1.68 - http://www.feurio.com
#
DISCID=1f041104
DTITLE=Bella Vista - Ich schaue nie mehr zurück
DYEAR=1900
DGENRE=Schlager
TTITLE0=Ich schaue nie mehr zurück >Radio Edit<
TTITLE1=Ich schaue nie mehr zurück >Single Edit<
TTITLE2=Ich schaue nie mehr zurück >Maxi Edit<
TTITLE3=Ich schaue nie mehr zurück >Roger Hunt Mix Edit<
EXTD=
EXTT0=
EXTT1=
EXTT2=
EXTT3=
PLAYORDER=
